<svg width="2066" height="1351" viewBox="0 0 2066 1351" fill="none" xmlns="http://www.w3.org/2000/svg">
<path d="M1074.05 14.4069C1066.67 21.7875 1033.99 46.0381 1002.36 69.2344C970.725 92.4306 934.876 119.844 923.278 129.334C911.68 138.823 894.81 153.584 885.321 160.965C849.472 189.433 808.351 436.157 826.276 508.909C834.711 542.649 873.722 559.519 944.366 559.519H1000.25L1016.06 514.181C1025.55 489.93 1041.37 430.885 1051.91 383.438C1069.84 301.197 1073 295.925 1117.28 266.403L1164.73 235.826L1241.7 282.218C1284.93 306.469 1320.78 327.556 1322.89 327.556C1324.99 327.556 1391.42 365.514 1471.55 411.906C1551.69 458.299 1630.5 501.5 1630.5 501.5C1630.5 501.5 1664 522 1691.92 541.594C1761.5 587.5 1803.68 617.509 1803.68 656.521C1803.68 707.131 1747.8 791.481 1714.06 791.481C1702.46 791.481 1698.24 803.079 1698.24 831.548C1698.24 853.689 1701.41 874.777 1704.57 877.94C1707.73 881.103 1735.15 876.886 1764.67 868.451C1795.25 860.016 1843.75 846.309 1872.22 838.928C1901.74 831.548 1955.51 815.732 1993.47 804.134L2062 783.046L2065.17 597.476C2067.28 435.103 2065.17 402.417 2047.24 345.481C2017.72 253.75 2001.9 212.629 1974.49 160.965C1947.08 110.355 1946.02 110.355 1830.04 143.041C1588.59 211.575 1559.07 214.738 1512.67 183.107C1462.06 147.258 1371.39 91.3763 1289.15 44.9838C1222.72 7.02626 1202.69 0.700012 1149.97 0.700012C1114.12 0.700012 1082.49 5.97186 1074.05 14.4069Z" fill="#E9E9E9"/>
<path d="M441.429 875.831C407.689 902.191 386.601 951.746 395.036 985.486C402.417 1015.01 460.407 1055.07 495.202 1055.07C520.507 1055.07 563.736 1013.95 586.933 968.616C600.639 942.257 600.639 935.931 585.878 913.789C546.866 854.744 486.767 838.928 441.429 875.831Z" fill="#E9E9E9"/>
<path d="M629.108 943.311C555.301 1055.07 551.084 1094.09 608.02 1127.83C686.044 1174.22 720.838 1153.13 791.481 1013.95C832.602 932.767 828.384 905.354 770.394 875.831C702.914 841.037 693.424 845.254 629.108 943.311Z" fill="#E9E9E9"/>
<path d="M842.091 957.018C775.666 1068.78 738.762 1147.86 738.762 1175.27C738.762 1195.31 749.306 1209.01 780.937 1229.05C804.134 1243.81 831.547 1255.41 842.091 1255.41C858.961 1255.41 928.55 1183.71 928.55 1166.84C928.55 1163.68 951.746 1124.66 981.269 1079.33C1009.74 1033.99 1033.99 991.813 1033.99 986.541C1032.93 966.508 986.541 919.061 957.018 908.517C896.919 885.321 880.049 892.701 842.091 957.018Z" fill="#E9E9E9"/>
<path d="M1018.17 1082.49C997.084 1115.17 974.942 1152.08 969.671 1164.73C964.399 1177.38 947.529 1207.96 933.822 1233.26C919.061 1258.57 907.462 1285.98 907.462 1293.36C907.462 1315.51 975.997 1350.3 1020.28 1350.3C1069.84 1350.3 1079.33 1340.81 1130.99 1239.59C1192.14 1118.34 1194.25 1073 1139.42 1041.37C1084.6 1008.68 1059.29 1017.12 1018.17 1082.49Z" fill="#E9E9E9"/>
<path d="M802.025 75.5605C770.394 97.7024 698.696 143.041 643.869 175.726C534.214 240.043 539.486 240.043 411.906 202.086C373.949 191.542 303.306 170.454 253.75 155.693C98.7568 110.355 109.301 110.355 86.1043 160.965C29.1681 289.599 0.699951 439.32 0.699951 620.672V776.72L88.2131 800.971C135.66 814.677 195.759 832.602 222.119 839.982C248.478 847.363 294.871 862.124 326.502 870.559L383.438 887.429L412.961 855.798C451.972 812.569 496.256 812.569 559.519 854.744L606.966 886.375L638.597 854.744C664.956 829.439 680.772 823.112 718.729 823.112C766.176 823.112 829 857.586 829 885C838 901.5 838.5 900.5 855.5 896C908 845.5 957.869 874.684 989.5 890.5C1007.42 899.989 1026.61 918.006 1044.53 944.366C1068.78 979.16 1084.6 991.812 1103.58 991.812C1138.37 991.812 1197.42 1037.15 1213.23 1076.16C1223.77 1101.47 1222.72 1115.17 1209.01 1148.91C1194.25 1186.87 1194.25 1193.2 1209.01 1207.96C1242.75 1241.7 1296.53 1212.18 1324.99 1144.7C1343.97 1097.25 1333.43 1069.84 1282.82 1039.26C1223.78 1003.41 1253.3 1005.52 1320.78 1041.37C1447.3 1109.9 1447.3 1109.9 1470.5 1097.25C1496.86 1083.54 1529.54 1022.39 1529.54 988.649C1529.54 965.453 1455.74 908.517 1361.9 861.07C1338.7 848.418 1330.27 838.928 1337.65 831.547C1343.97 825.221 1362.95 830.493 1393.53 848.417C1529.54 926.441 1573.83 949.637 1591.75 949.637C1614.95 949.637 1650.8 911.68 1665.56 872.668C1688.75 812.569 1667.67 788.318 1539.03 719.784C1506.35 702.914 1468.39 680.772 1454.68 671.283L1430.43 654.412H1459.96C1491.59 654.412 1526.38 671.283 1605.46 725.056C1670.83 770.394 1708.79 770.394 1745.69 727.164C1784.7 680.772 1779.43 624.89 1735.15 601.694C1720.5 593 1698.24 579.552 1698.24 579.552C1692.97 573.226 1561.17 497.311 1500.02 465.679C1484.21 457.244 1469.44 447.755 1466.28 444.592C1461.01 438.266 1403.02 405.58 1334.48 370.786C1317.61 361.296 1300.74 351.807 1297.58 347.589C1294.42 344.426 1262.79 326.502 1225.88 308.578C1163.68 275.892 1159.46 274.838 1134.15 291.708C1119.39 301.197 1105.68 319.121 1102.52 331.774C1078.27 453.027 1051.91 554.247 1041.37 571.117C1015.01 613.292 854.744 589.041 794.644 535.268C765.122 508.909 761.959 438.266 785.155 354.97C793.59 325.448 809.406 270.62 818.895 232.663C841.037 150.421 844.2 146.204 908.517 104.029C962.29 70.2887 972.834 50.2556 943.311 38.6575C904.299 23.8962 857.907 35.4943 802.025 75.5605Z" fill="#E9E9E9"/>
</svg>
