<svg width="396" height="298" viewBox="0 0 396 298" fill="none" xmlns="http://www.w3.org/2000/svg">
<path d="M267.473 1.34581C249.573 5.64581 235.473 18.1458 231.273 33.7458C230.373 36.7458 229.273 41.0458 228.673 43.2458C227.973 45.5458 226.073 48.6458 224.073 50.4458C218.873 55.4458 212.773 55.0458 192.973 48.7458C171.173 41.8458 164.573 40.6458 149.273 40.5458C134.473 40.5458 121.173 43.3458 110.273 48.6458C96.5734 55.3458 92.0734 62.2458 88.6734 81.2458C85.5734 99.1458 80.7734 109.446 70.6734 119.746C60.9734 129.746 52.2734 134.046 32.7734 138.646C13.3734 143.146 6.97339 147.446 1.87339 159.246C-0.326611 164.246 -0.626611 175.546 1.17339 182.746C5.37339 199.946 25.8734 232.346 45.6734 253.246C68.4734 277.146 85.5734 288.746 106.673 294.546L116.273 297.246H171.273C218.173 297.246 228.373 296.946 240.673 295.446C265.073 292.346 285.773 285.946 307.973 274.646C344.773 255.746 380.873 215.546 392.373 180.746C394.573 173.846 395.173 170.446 395.173 162.246C395.273 153.546 394.973 151.546 392.673 146.746C389.073 138.946 382.373 133.346 371.273 128.846C354.973 122.246 348.073 116.146 342.173 103.446C339.573 97.5458 337.873 86.9458 338.473 79.7458C338.673 77.2458 339.773 69.2458 340.973 61.8458C343.673 44.1458 343.173 36.0458 338.873 27.3458C335.373 20.0458 327.273 12.0458 319.873 8.34581C305.973 1.24581 281.273 -2.05419 267.473 1.34581Z" fill="#ABD5C7"/>
</svg>
