<svg width="431" height="389" viewBox="0 0 431 389" fill="none" xmlns="http://www.w3.org/2000/svg">
<path d="M229.5 0.999982C229.1 1.59998 229 5.99998 229.1 10.8L229.5 19.5L226.5 19.8C222.2 20.3 221 21.7 221 26C221 29.6 220.8 29.8 217 30.4C213.9 30.9 212.9 31.5 212.4 33.5C212.1 34.8 212.1 36.3 212.4 36.8C213.2 38.1 211.2 39.6 207.7 40.4C204.3 41.2 202.9 44.4 203.9 49.1C204.5 52.3 206.5 54 211.3 55.4C212.7 55.8 213 57.1 213 62C213 78.2 205.7 126.4 201.8 136C200.5 139.1 200.1 139.3 195.6 139.4L190.7 139.5L183.8 153.2C180.1 160.8 176.6 167 176.1 167C175.6 167 174 165 172.6 162.5C170.3 158.7 170.1 157.4 170.6 152.6C171.2 147.8 171 147.1 169.2 146.1C168.1 145.5 166 145 164.6 145C162.8 145 161.2 143.6 158.1 139.2C155.6 135.7 154.2 132.9 154.6 132C157.3 125.8 155.4 121.7 149.1 120C145.9 119.2 144.8 117.9 140.4 110.3C133.9 99.1 133.7 98.4 135.5 95C138.3 89.6 136.7 85.9 130.8 84.5C128.7 84 127 81.8 122.9 74.3C116.4 62.8 113.5 60 107.5 60C97.9 60 72.4 70.7 63.2 78.6C59.5 81.7 59 82.7 59 86.3C59 90.9 61 94.8 67.1 102.1C70.9 106.6 72.1 111.2 70 112.5C69.5 112.8 69 114.2 69 115.5C69 118.2 72.4 121 75.6 121C79.8 121 81 122.2 86.6 131.5C91.8 140.2 92.1 141.1 91.5 145.3C90.9 149.2 91.1 150 92.8 150.9C94 151.5 96.3 152 98.1 152C100 152 101 152.4 100.5 152.8C99.9 153.3 90.5 157.6 79.5 162.5C43.7 178.2 14.7 194 12.3 199.1C11.3 201.2 11.3 202.7 12.6 206.9C13.4 209.7 13.8 212.4 13.5 212.9C13.2 213.4 10.4 215.3 7.2 217C0.9 220.6 0 221.5 0 224.6C0 226.1 2.1 227.8 8.4 231.3C17.5 236.4 19.6 236.8 23.9 234.5C27.4 232.7 27.1 232.4 34 245C36.9 250.2 40.6 256.3 42.2 258.5C44.8 262.1 44.9 262.6 43.4 263.5C31.6 270.4 29.1 282.4 37 294.2L39.9 298.4L37.4 300.7C35.8 302.1 35 304 35 306.1C35 310.4 41 316.3 47 318.1C49.5 318.8 51.6 319.4 51.7 319.5C51.8 319.6 50.4 323.3 48.4 327.7C42.6 341.1 39.9 353.6 39.3 369.2L38.7 383H24.4C10.5 383 8.4 383.4 9.8 385.7C10.3 386.5 68.2 387 220.8 387.6L431 388.3V386.1C431 384.1 430.5 384 423.8 384C339.4 383.9 45.2 382.7 44.2 382.5C42.9 382 42.5 369.8 43.6 364.1C44.2 361.2 44.6 361 48.4 361C51 361 54 360.1 56.5 358.5C64.5 353.7 66.1 352.9 67 353.5C67.6 353.8 68 357.5 68 361.6C68 371.8 70.4 375.9 76.3 376C81.3 376 85.7 373.3 92.6 365.9C108.5 349 112.2 346 117.7 346C122.3 346 123.7 348.8 124.3 359.4C124.9 369.3 126.3 372.3 132.1 375.2C135.9 377.2 144.5 377.6 150 376C156.6 374.2 162.8 369.3 170.2 359.9C176.2 352.3 179.1 349.6 187.4 344.1C200 335.8 203.2 332 203.8 324.3C204.5 315.6 201.3 314.2 189.2 318C181 320.6 171.9 320.6 166.2 318C162.9 316.5 161.5 315.1 159.9 311.6C157.8 306.8 158.1 303.6 161.5 294.1C164.8 284.8 162.5 274.6 156.6 271.9C152.6 270 149.5 271.6 143 279C136.1 286.8 132.7 289 127.9 289C125.2 289 123.5 287.8 117.9 282C112.2 276 110.7 275 107.9 275C103.2 275 102.3 275.8 98.1 283.5C93.6 291.8 89.8 294.3 82.7 293.7C80.1 293.5 77.7 293 77.3 292.6C76.4 291.7 80.1 288 90.5 279.2C101.1 270.3 113.8 261.8 123.5 257.1C127.4 255.2 132.6 252.6 135.2 251.3C153.4 242.1 188.5 233.7 212.5 232.8L221.5 232.5L222.1 238.1C222.8 245 226.2 251.2 230.9 254.4C232.9 255.8 238.2 258.5 242.8 260.4C247.4 262.4 252.1 264.6 253.2 265.4C255.2 266.9 255.2 266.9 251.1 268.6C242.8 271.9 240.7 278.5 246.1 283.9C248.4 286.2 252 287.9 260.8 290.6C267.2 292.6 273.9 294.9 275.5 295.7C283 299.5 288.3 307.6 286 312C283.8 316.1 281.2 316.8 265 317.2C252.1 317.6 248.8 318 245 319.7C231.2 326 230.5 339.7 243.7 346.1C247.2 347.8 250.7 348.5 257 348.8C268.3 349.4 273.3 347.3 282 338.5C285.6 334.9 289.2 332 290.1 332C292.2 332 294.9 336.3 298.4 344.9C301.4 352.4 303.3 354.8 307.8 356.7C312.2 358.6 317.5 357.1 326.2 351.4C338 343.8 342.9 342.3 345.8 345.2C347.9 347.3 347.1 349.6 342 357.3C335.6 366.6 334.7 370.8 338.3 374.4C343.7 379.8 352.6 376.8 357.4 368L360.1 363L367.5 363.7C374.7 364.3 374.9 364.2 377.8 361.3C380 359.1 381 357 381.5 353.4C382.7 343.4 383.5 339.9 384.5 339.8C385.1 339.8 387.2 343.1 389.2 347.3C394.4 357.9 398.7 360.4 404.4 355.9C405.9 354.7 407.4 354.1 407.7 354.4C408.1 354.7 408.6 361.1 408.8 368.5C409.2 380.9 409.4 382 411.1 382C412.8 382 413 381.1 413 370.4C413 355.9 410.3 342.1 404.9 328.9L400.9 319.2L404 316.2C405.7 314.5 407.3 311.8 407.6 310.1C408.2 307.2 408.5 307 412.9 307C426.8 307 434.8 294 428.9 281C427.8 278.5 425.5 275 423.7 273.2C421 270.4 420.7 269.7 421.8 268.2C426.9 261.2 429.2 250.2 427 243.5C424.8 236.9 417.3 230 410.1 228C407.8 227.4 407.6 226.9 407.5 220.4C407.2 205 396.7 194.2 379.3 191.5L375.1 190.8L376.8 187.4C378.1 184.6 378.2 183.3 377.3 181C376.5 178.8 376.5 177.2 377.3 175.1C378.2 172.6 379 172.2 383.1 171.7C392.6 170.6 399.3 165.4 401.6 157.3C404.8 146.3 400.5 137.4 383.5 119C378.1 113.2 372.9 107.2 372 105.7C370.3 102.9 370.3 102.6 372.2 98.3C375.3 91.3 372.8 84 367.4 84C362.5 84 360.9 90.8 363.6 99.8C364.8 103.8 359.1 105.3 339 106C318.9 106.6 316.3 107.4 312.9 114.2C310 119.8 310.8 127.1 314.8 134.4C317.6 139.3 317.7 139.7 316.1 141.8C314.7 143.6 307.6 149 306.5 149C306.3 149 303.5 147.5 300.3 145.6C297.1 143.7 291.7 141.2 288.2 139.9L281.9 137.7L276.3 128.1C263.9 107 254.8 84.7 251 65.8C248.9 55.5 249 54 251.9 54C254.6 54 256 51.9 256 47.9C256 42.8 255.2 41.2 251.9 39.4C249.6 38.3 249.1 37.5 249.6 35.6C250.2 33 248.8 31.6 244.8 30.6C242.6 30.1 242 29.4 242 27.4C242 23.9 240.3 21.1 237.5 20C235.2 19.1 235.1 18.6 234.8 9.79998C234.5 1.09998 234.4 0.499982 232.3 0.199982C231.2 -1.79932e-05 229.9 0.399982 229.5 0.999982ZM237.5 26.1C238.6 29.3 236.9 30.1 230.9 29.3C226.4 28.6 225.4 28.1 225.2 26.2C224.9 24.1 225.2 24 230.9 24C236.1 24 237 24.3 237.5 26.1ZM241.9 34.6C245 35.2 246.2 37.7 243.8 38.5C243.1 38.7 237 39.1 230.2 39.5C219.7 40 217.9 39.9 217.4 38.6C215.9 34.7 217.5 34 228.3 34C234.1 34 240.2 34.3 241.9 34.6ZM250.8 44.2C252.2 45.6 252.4 48.6 251.1 49.4C250.7 49.7 243.2 50.4 234.5 51C223 51.8 217.1 51.8 213.3 50.9C208.3 49.9 207.9 49.7 208.2 47.2L208.5 44.5L222 44C247.2 42.9 249.6 43 250.8 44.2ZM236.9 67C237.9 74.7 242.2 97.3 244.7 108.7C245.2 111 245.1 111 234.6 111C228.8 111 224 110.7 224 110.2C224 109.8 224.7 103.6 225.5 96.5C226.3 89.3 227.3 77.3 227.6 69.8L228.3 56.1L230.9 55.8C232.3 55.6 234 55.9 234.6 56.5C235.2 57 236.2 61.8 236.9 67ZM224 58C224 59.1 223.6 60 223 60C222.5 60 221.6 59.1 221 58C220.1 56.3 220.2 56 222 56C223.3 56 224 56.7 224 58ZM220.4 64.2C221.1 65.4 221 66.3 220.1 67.4C218 69.9 217 69.3 217 65.4C217 61.7 218.4 61.2 220.4 64.2ZM112.7 66.3C113.4 66.9 116.3 71.8 119.3 77C124.4 85.8 126.4 88 131.3 89.4C132.9 89.9 133 90.2 131.5 92.9C129.3 97.3 129.6 99.8 133.9 107.5C141.2 120.9 142.7 122.8 146.4 123.6C150.9 124.4 152.5 126.2 151.1 128.9C149.1 132.5 150 135.4 155.1 142.7C159.7 149.4 160.4 150 163.6 150C166.8 150 167.1 150.2 166.3 152.2C164.9 156.5 165.7 159.9 169.9 166.4L174.1 172.8L171.5 177.9C170.1 180.7 168.7 183 168.5 183C168.2 183 166.7 181.6 165.2 179.9C162.4 176.8 162.4 176.8 158.7 178.4C156.6 179.2 154.7 180.6 154.4 181.4C154.1 182.2 155.7 186 157.9 189.9L162 196.9L156.9 207.9C154 214 151.3 219 150.9 219C150.4 219 149.6 218.1 149 217C148.4 215.9 146.5 214.7 144.7 214.2C141.8 213.5 141.4 212.9 140.9 208.9C140.4 204.4 130.6 185.7 127.2 182.8C126.3 181.9 123.8 180.7 121.8 180C117.3 178.6 117.2 177.6 120.5 169.5C124.4 160 123.7 158 117.6 160.5C115.7 161.3 113.7 162 113.1 162C112.6 162 110.4 158.9 108.1 155.1C104 148.1 101.6 146.3 98.1 147.5C96.4 148 96.2 147.6 96.2 143.6C96.3 140.1 95.4 137.7 92.2 132.3C84.7 119.7 82.4 117 78.7 117C74 117 72.6 115.8 74.5 113.4C76.8 110.4 76.3 107.6 72.5 102.4C65.3 92.4 63 88.5 63 86.3C63 83.2 68.8 79 82.5 72.4C98.4 64.7 109 62.5 112.7 66.3ZM222.5 79.8C222.2 80.1 221 79.4 219.8 78.2L217.6 76L220.1 73.4L222.5 70.8L222.8 75C223 77.3 222.9 79.5 222.5 79.8ZM245.6 76.1C245.9 76.7 245.5 77.9 244.6 78.8C243.1 80.3 243 80.2 243 77.7C243 75 244.3 74.1 245.6 76.1ZM250.8 83.8C251.1 85.4 250.7 85.7 249.1 85.3C246.7 84.7 246.8 84.8 247.6 82.5C248.5 80.4 250.4 81.1 250.8 83.8ZM219.4 84.2C220.9 86.3 220.8 86.6 218.3 89.2C216.8 90.7 215.4 91.8 215.2 91.5C214.4 90.8 216.1 82 217 82C217.5 82 218.6 83 219.4 84.2ZM369 92.5C369 94.4 368.6 96.1 368.1 96.4C366.9 97.2 365.8 92.3 366.5 89.9C367.4 87 369 88.6 369 92.5ZM249.4 90.3C251.1 91.5 251.1 91.7 249.2 94C246.9 96.9 246.5 96.7 245.5 92.2C244.8 88.7 246.2 87.9 249.4 90.3ZM221 98.3C221 103.6 220.2 104.5 217.8 102.3C215.6 100.3 215.5 98.2 217.7 95.8C220.2 93 221 93.6 221 98.3ZM256.8 99.4L258.1 102.3L254.9 101.6C250.6 100.8 250.4 100.5 252.5 97.4C254.3 94.6 254.9 94.9 256.8 99.4ZM216.3 107.9C218 110.8 218 110.9 215.9 111.5C213.1 112.4 211.6 110.7 212.4 107.6C213.2 104.2 214.2 104.3 216.3 107.9ZM255.1 106.6C257.6 107.8 257.9 108.4 256.9 109.6C255.2 111.6 251.3 111.3 250 109.1C247.7 104.8 249.7 103.8 255.1 106.6ZM369.2 109.2C370.4 111 374.8 116.1 379 120.5C394.4 136.9 397.9 142.8 398 151.5C398 160.1 392.7 165.7 382.6 167.5C379.2 168.2 378.5 167.9 375.2 164.7C367.6 157.4 342 143.1 328.4 138.6C323.1 136.8 321 135.5 319.2 133C314.4 126 314.2 118.1 318.6 113.6C321.5 110.8 324.9 110 334.2 110C340.3 110 341.1 110.2 340 111.5C338.6 113.1 339.5 115 341.6 115C343.5 115 344.6 112 343 111C342.4 110.6 345.6 110.1 350.2 109.8C355.2 109.5 359.7 108.7 361.5 107.7C365.7 105.4 366.6 105.6 369.2 109.2ZM265.4 117.9L266.9 120.8L262.2 121.4C259.6 121.7 246.8 122 233.6 121.9H209.8L210.4 119.7C210.7 118.5 211 117.2 211 116.8C211 115.9 220.5 115.4 244.7 115.2L263.9 115L265.4 117.9ZM218 128.6C218 131.1 217.9 131.2 215.8 129.8C212.6 127.6 212.4 126 215.4 126C217.5 126 218 126.5 218 128.6ZM247.5 128C248.3 128.6 251.4 134.3 254.5 140.6L260.1 151.9L257.9 162.2C256.7 167.9 255.6 172.7 255.4 172.9C254.8 173.6 247.6 166.4 241.3 158.8C238.2 155.1 235 151.8 234.2 151.5C233.4 151.2 230.6 152.2 228 153.6C221.5 157.2 219.5 156.4 220.5 150.7C220.8 148.4 221.5 142.4 221.8 137.5C222.2 132.5 222.9 127.9 223.4 127.1C224.1 126 226.5 125.8 235.2 126.3C241.2 126.6 246.8 127.4 247.5 128ZM270 127C270 127.5 267.1 128.1 263.5 128.2C259.9 128.3 256.3 128.4 255.3 128.4C254.4 128.5 253.5 127.9 253.3 127.2C252.9 126.3 255 126 261.4 126C266.5 126 270 126.4 270 127ZM212.5 132.4L215.5 134.8L211.6 136.4C206.8 138.4 205.6 138.4 206.4 136.4C206.7 135.5 207.3 133.7 207.6 132.4C208.4 129.4 208.8 129.4 212.5 132.4ZM265 132.8C265 133.9 259.1 139.5 258.6 138.9C258 138.2 256 134.2 256 133.6C256 133 258.9 132.3 262.3 132.1C263.8 132.1 265 132.4 265 132.8ZM275 134C276 135.8 275.8 136 272.3 136L268.5 135.9L270.9 134C273.8 131.6 273.7 131.6 275 134ZM217.4 141.7C217 143.3 216.6 144.6 216.5 144.8C216.4 144.9 214.6 144.4 212.5 143.7L208.7 142.4L212.6 140.7C217.9 138.5 218.1 138.6 217.4 141.7ZM280.6 142.1C284.4 143.2 290.8 145.7 294.9 147.7C303.5 151.8 303.5 150.8 296.8 167.7L292.5 178.5L288.5 178.3C286.3 178.2 280.3 176.5 275.2 174.6C270 172.6 264.7 171 263.4 171C261.9 171 261 170.4 261 169.4C261 166.4 266.1 145.7 267.6 142.9C269.4 139.4 271.3 139.3 280.6 142.1ZM340.3 148.3C352 154.1 367.9 163.6 371.8 167.3C373.9 169.3 374.8 173.4 373.2 174.4C372.8 174.6 369.1 172.7 365 170.1C354.7 163.5 329.9 149.3 324.5 146.9C322 145.8 320 144.6 320 144.1C320 140.4 327.1 141.8 340.3 148.3ZM205.5 148.8C209.3 151.4 214.4 155.3 216.8 157.7C220.6 161.3 221.2 162.3 220.6 164.7C219.7 168.2 213.9 177 201.2 194.2C195.8 201.5 188.7 211.4 185.5 216.2C182.3 221.1 179 225 178.2 225C177.3 225 177 224.4 177.3 223.2C177.6 222.3 180.3 214.3 183.4 205.5C186.4 196.7 190.7 182.3 193 173.5C195.3 164.7 197.3 157.4 197.5 157.2C197.6 157.1 198.5 157.3 199.5 157.6C200.9 158.2 201.1 159.1 200.6 163.2C200.2 165.9 199.1 170.9 198 174.3C196.1 180.4 196.5 182.8 199.2 181.7C201.4 180.9 206.6 160.6 205.4 157.5C204.4 155.1 196.1 150.5 194.8 151.8C194.3 152.3 191.8 160.5 189.4 169.9C187 179.4 182 196.1 178.3 207C172 225.7 171.7 227.1 173.3 228.7C174.6 230 175.7 230.2 178.7 229.4C181.9 228.6 183.3 227.3 187.9 220.5C190.9 216.1 198.6 205.3 205 196.5C222.2 172.9 224.2 169.7 224.8 164.5C225.1 161.4 225.9 159.6 227.1 158.9C228.3 158.3 229 158.3 229 158.9C229 159.4 227 166.1 224.6 173.7C222.1 181.3 217.7 195.6 214.6 205.5C211.6 215.4 208.7 224.6 208.2 226C207.3 228.4 206.5 228.7 196.9 229.9C183.5 231.5 171.1 234.2 158.3 238.2C152.6 239.9 147.7 241.1 147.4 240.7C147.1 240.4 149.7 233.7 153.3 225.8C160.8 209.3 190.6 148.6 192.8 145.2C194.7 142.3 196.3 142.8 205.5 148.8ZM327.4 153.3C340.6 160.2 367 176.2 370.7 179.6C373.7 182.4 373.9 183.1 372.9 185.3C371.9 187.5 366.4 191 364 191C363.4 191 363 190.1 363 189C363 185.5 357.1 180.2 344 172C329.5 162.9 321.4 159.5 316.3 160.5C307.5 162.1 300.3 177.1 291.6 211.5C287.2 229 281.9 238.7 283.4 226.7C284.5 216.7 297.4 178.7 305.5 161.4C309.8 152.2 312.7 149 316.7 149C317.9 149 322.7 151 327.4 153.3ZM106 160.2C107.1 162 108 163.9 108 164.3C108 164.7 94.8 171.5 78.8 179.4C62.7 187.3 42.8 197.4 34.6 201.9C26.4 206.3 19.4 210 19 210C17.9 210 16 205.2 16 202.5C16 200.6 17.6 199.1 24.2 195C28.8 192.2 37.9 187.2 44.5 183.8C58 176.8 100.8 157.2 102.8 157.1C103.5 157 104.9 158.5 106 160.2ZM244.5 168.8C251.6 176.4 253.1 178.6 252.5 180.3C252.1 181.5 251.6 191 251.3 201.5C251 211.9 250.4 220.9 249.9 221.5C249.3 222.1 245.5 219 239.7 213.2C234.6 208.1 229.9 204 229.3 204C225.8 204 227.9 207.2 237.6 217C243.5 223.1 248.2 228.1 247.9 228.2C247.7 228.4 239.5 228.4 229.7 228.2C216.5 228 212 227.6 212.4 226.7C213 225.3 217.8 209.8 226.7 181.5C230.3 169.9 233.4 160.1 233.7 159.7C234.5 158.4 235.4 159.1 244.5 168.8ZM326.7 166.9C332.8 169.7 354.1 183.4 356.9 186.4C360 189.7 359.3 192.3 353.2 198.5C350.5 201.3 347.9 204.4 347.3 205.4C345.6 208.5 341.4 206.8 340.6 202.6C340.2 200.8 339.1 198.5 338.1 197.6C331.7 191.8 319.7 196.7 304.1 211.6C298.5 216.9 294 220.8 294 220.3C294 218.3 302 190 304.3 183.9C311.2 165.6 315.9 162 326.7 166.9ZM115.5 170.1C113.6 175.3 113.6 180.4 115.4 181.9C116.1 182.5 118.5 183.6 120.6 184.3C124.1 185.5 125.2 186.8 130.8 196.6C135.6 205.1 136.9 208.1 136.4 210.2C135.6 213.9 137.5 216.8 141.3 217.8C146.1 219 147.8 222.7 146.2 228.5C145.5 231 144.3 234.8 143.4 236.8L141.8 240.5L139.5 234.2C136.5 226.5 129.5 215.5 124 210C121.7 207.7 117.3 204.7 114.3 203.3C98.5 196 78 207.3 73.9 225.4L72.8 230.6L67.1 230.2C60.3 229.8 53.8 232.8 50.2 238.1C48.2 241 47.9 242.4 48.3 248.5C48.5 252.3 49.1 256.6 49.5 258L50.3 260.5L47.8 258.2C46.4 256.9 42 250.1 37.9 242.9C29.9 228.7 28.8 227.8 22.5 230.4C18.8 232 18.7 232 11.9 228.2C8.1 226.2 5 224.2 5 223.8C5 222.5 41.8 202.8 78.4 184.4C98.8 174.3 115.7 166 116.1 166C116.6 166 116.3 167.9 115.5 170.1ZM274.6 179C278.8 180.7 284.2 182.3 286.6 182.7C290 183.1 291 183.7 291 185.1C291 187.1 290 187.5 288.5 186.1C287.9 185.6 282.4 183.6 276.3 181.5C270.1 179.5 264.8 177.4 264.5 176.9C263.4 175.2 266.9 176 274.6 179ZM277.2 186.5C286.7 189.3 287.5 190.2 286.1 196.3C285.1 200.7 284 202.3 284 199.4C284 196.4 281.1 193 278.6 193C275.2 193 272.8 196.4 272.2 202C271.7 207.9 273.6 211.6 278.2 213.2C280.7 214.1 281.1 214.6 280.6 216.9C280.3 218.3 279.7 222.4 279.4 225.8C279 229.3 278.2 232.4 277.6 232.6C276.9 232.9 273.1 232.4 269.1 231.5C265.1 230.7 260.7 230 259.2 230C254 230 253.9 229.6 256 213.5C257 205.2 258.2 194.7 258.5 190C259.4 178.4 259.2 178.7 264.2 181.5C266.6 182.8 272.4 185 277.2 186.5ZM164 185.5C166 188.7 166 191 164.1 191C163.4 191 159 183.8 159 182.6C159 180.7 162.1 182.5 164 185.5ZM386.2 197.6C392.1 199.6 398.8 205.3 401.1 210.4C402.2 212.9 403 216.9 403 220.6V226.7L397.8 228.6C391.4 230.9 388 235.6 389.8 239.6C392.1 244.5 401.3 241.5 404 234.9C405.2 232.1 405.6 231.8 408.8 232.4C417 233.7 424.5 243.8 423.6 252.2C423.1 257.3 420.9 262.2 417.8 265.7C416.2 267.4 415.1 267.7 412.4 267.3C405.1 266.1 399.4 271.5 404 275.2C406.6 277.3 410.7 276.9 414.8 274.2C416.9 272.8 417.3 272.9 421 276.9C427.8 284 428.6 293.5 423 299.2C420.5 301.7 419.5 302 413.7 302C407.9 302 406.9 301.7 402.9 298.5C398.7 295.2 394.7 294 393.6 295.8C392.8 297.1 395.8 300.9 399 302.5C403.2 304.7 404.4 307.4 402.8 310.8C400.4 315.6 398.6 314.7 392.5 305.3C388.7 299.6 382 291.9 373.6 283.5C358.7 268.6 345.8 259.4 327.5 250.4L316.1 244.8L315.4 238.4C314.4 228.7 315.3 223.4 318.7 219.2C322 215 328.9 211.2 334 210.8C337.3 210.5 337.6 210.8 339.9 215.7C341.2 218.6 342.9 221 343.6 221C344.3 221 345.7 222.1 346.7 223.3C350.7 228.4 355.8 229 358.1 224.8C359.6 222 358.5 217.3 355.3 213.2C352.7 209.8 352.7 209.7 354.5 206.4C356.8 202.2 360.7 198.5 364.5 197.2C369.1 195.6 381.1 195.8 386.2 197.6ZM279.3 202.5C279 206.9 278.4 207.8 276.9 206.3C276.2 205.6 276 203.7 276.4 201.5C277.3 196.7 279.6 197.5 279.3 202.5ZM334.2 200.2C336.3 202 337.2 205 335.7 205.5C335.1 205.7 332 206.6 329 207.4C315.8 211.1 308.3 223.5 310.9 237.5C311.4 240.2 311.7 242.6 311.6 242.7C311.2 243.1 288 235.5 288 234.9C288 234.6 292.2 229.9 297.3 224.5C311 209.9 325.3 199.1 331.1 199C331.9 199 333.3 199.6 334.2 200.2ZM112.5 207.4C118.4 210.1 126.4 218.3 130.7 226C135.7 234.9 135.7 237.2 130.8 230.5C118.2 213.4 107.9 207.8 95.8 211.4C90 213 83.9 218.4 82.1 223.3C80.7 226.9 80.7 234.1 82 237.6C83.4 241.2 82.7 241.7 80 239C78.1 237.1 77.8 235.9 78.2 230C78.6 221.6 82.3 215.2 89.4 210.3C97.8 204.5 104.6 203.7 112.5 207.4ZM110.7 216.7C117.8 220 133 239 133 244.7C133 248.1 131.5 248.2 129.7 245C127.8 241.8 122.2 239.5 118.4 240.4C116.3 241 116 240.7 116 238.5C116 234.5 113.6 229.7 110.1 226.7C104.1 221.7 95.4 223.6 89.5 231.4C86.4 235.4 85 235.3 85 230.9C85 218.4 98.4 211.1 110.7 216.7ZM353.3 218.2C354.3 220.3 354.6 221.8 353.9 222.5C352.8 223.6 350.3 221.3 350 219C349.3 214.1 351.1 213.7 353.3 218.2ZM107.3 230.1C110.4 232.5 112.3 238.7 111.5 243.4C110.7 247.6 112.2 248.8 115.5 246.6C118.9 244.4 123.3 244.6 125.6 247.1C127.2 249 127.3 249.4 126 250.1C101.1 264.8 94 269.7 81.6 281.2C73.8 288.3 63.7 300.4 58.4 309.1C54.3 315.7 53 316.1 46.5 313.1C41 310.6 38.3 307.4 39.6 305.2C40.2 304.3 41.6 303.4 42.8 303.2C47 302.6 47.2 300.6 43.7 295.9C38.5 289.2 37 285.6 37 280.1C37 267.6 50.5 263.1 62.8 271.5C69.9 276.3 71.4 273.3 65.2 266.5C55.3 255.8 53.3 246.7 59.9 242.3C68.5 236.5 84 243.1 84 252.5C84 256.7 86.4 259 88.6 256.8C89.9 255.6 89.9 254.6 89 250.7C88 246.9 88.1 245.3 89.5 241C93.1 230 101.1 225.1 107.3 230.1ZM264 235.2C325.5 245.1 375.1 277.6 397.1 322.4C405.6 339.6 406.8 347.2 401.9 352.1C398.9 355.1 396.9 353.3 392.2 343.6C388.4 335.6 387.8 335 385.1 335C380.9 335 378.9 338.5 378 347.3C376.9 358.9 374.7 361.1 366.1 359.1C360.2 357.8 357.7 359 354.5 364.5C350 372.1 343.5 375.5 341.1 371.3C339.9 369.1 341 366.4 346.5 358.4C351.7 350.7 352.4 346.1 348.8 342.3C347.1 340.5 345.6 340 341.8 340C336.4 340 333.8 341.1 323.9 347.7C316.1 352.9 310.1 354.3 307 351.5C306 350.6 303.7 346.3 301.9 342.1C297.3 330.9 294.8 328 289.9 328C286.3 328 285.3 328.7 278.7 335.3C272.5 341.7 270.8 342.9 266.1 344C255.8 346.4 243.3 343.2 239.7 337.1C237.5 333.3 237.5 331.8 240.1 328.6C244.1 323.5 247.2 322.6 264.5 322C282.3 321.3 286.9 320 289.5 314.9C292.6 309.1 290.6 302.6 284.1 296.7C279.2 292.3 275.4 290.5 261.5 286.2C252.6 283.4 247 280.3 247 278.2C247.1 276.3 249.4 274.3 254.2 272C257.2 270.6 259.6 268.7 259.8 267.7C260.4 264.8 254.8 260.6 245 256.6C234.4 252.2 230.4 249.1 227.9 243.5C226 239.4 225.4 233.9 226.7 232.6C227.9 231.4 250.3 233 264 235.2ZM397.8 235.7C396.3 237.2 394.7 238.1 394.4 237.7C393.4 236.7 397 233 398.9 233C400 233 399.7 233.7 397.8 235.7ZM69 235C69 235.5 67.4 236 65.5 236C63.5 236 60.5 236.7 58.9 237.6C57.2 238.4 55.6 238.9 55.3 238.6C55 238.4 56.5 237.2 58.7 236.1C62.7 234 69 233.3 69 235ZM157.6 279.1C159.5 282.8 159.2 286.1 155.9 298.1C153.4 307.6 153.8 312 158 317.3C163.6 324.4 177 326.4 190.9 322.1C199.2 319.6 200.6 320 199.6 325.2C198.7 330 193.8 335.4 186.7 339.6C177.1 345.2 174.6 347.4 166.7 357.3C161.4 364 157.9 367.3 154.2 369.3C145.3 374.2 134.1 373.9 130.5 368.7C129.5 367.3 129 364.2 129 360C129 347.4 125.6 342 117.8 342C111.2 342 107 344.8 94.5 357.7C76.9 375.8 73.1 376.3 72.1 360.7C71.7 355.8 70.9 351.6 70.1 350.7C68.2 348.3 63.8 348.6 59.6 351.5C53.9 355.4 50.3 357 47.5 357C45.5 357 45 356.5 45 354.6C45 350.3 50.1 334.7 54.5 325.3C58.5 316.9 69.4 299.5 72.3 297.2C73.1 296.5 75.3 296.6 78.9 297.6C88.5 300.1 96.5 296.3 101.1 287.3C104.1 281.3 105.9 279 107.6 279C108.4 279 112.1 282.1 115.8 286C122.7 293.1 123.8 293.6 131 293C135.3 292.6 138.6 290.3 145.1 283C152.3 274.9 155 274.1 157.6 279.1Z" fill="black"/>
<path d="M100 75.3C98.6 76 97.4 77.3 97.2 78.2C96.8 80 103.3 89.5 105.4 90.3C107.3 91.1 113.4 87.8 113.8 85.9C113.9 85.1 112.6 82.1 110.8 79.4C107.2 74.1 104.4 73 100 75.3ZM106.9 81.2C108.1 83.3 108.6 84.8 108 85.4C107.5 85.9 106.9 86.2 106.8 85.9C106.6 85.7 105.4 84.3 104.1 82.8C102.9 81.4 102.1 79.7 102.5 79.1C103.6 77.3 104.7 77.8 106.9 81.2Z" fill="black"/>
<path d="M86.8 82.7C85.3 83.7 83.8 85 83.5 85.8C82.9 87.4 84.9 91.3 88.8 95.9L91.7 99.3L95.1 97.4C100.3 94.3 99.9 90.3 93.6 83.2C91.3 80.6 90.4 80.5 86.8 82.7ZM92.4 88.5C94.3 91.4 94.4 93 92.7 93C91.2 93 87.8 87.6 88.7 86.6C89.8 85.5 90.7 86 92.4 88.5Z" fill="black"/>
<path d="M75.8 90.5C71.5 92.9 71.4 95.5 75.2 101.1C77 103.8 79.1 106.2 79.8 106.5C81.8 107.3 88 102.8 88 100.4C88 97.4 81.3 88.9 79.1 89C78.8 89.1 77.3 89.7 75.8 90.5ZM83 99.7C83 101.9 80.2 101.2 78.4 98.5C76.1 95 77.6 93.3 80.6 96.1C81.9 97.3 83 98.9 83 99.7Z" fill="black"/>
<path d="M113.4 108.9C111.6 110 109.9 111.3 109.5 112C108.7 113.3 114.8 123.8 117.3 125.4C118.7 126.3 119.9 126 122.8 124.4C127.2 121.8 127.9 118.7 125.4 113.8C121.8 106.6 119 105.5 113.4 108.9ZM120.9 114.9C122.4 117.8 122.6 119 121.7 119.9C119.9 121.7 118.6 121.2 116.1 117.3C113.9 113.8 113.8 113.6 115.6 112.3C118.2 110.4 118.8 110.6 120.9 114.9Z" fill="black"/>
<path d="M93.8 120.1C91.7 121.2 90 122.5 90 123.1C90 124.8 94.1 132.3 96.3 134.7C97.4 136 99.1 137 100 137C102.3 137 110 131.3 110 129.6C110 128.8 108.2 125.9 106 123.1C101.5 117.4 99.7 116.9 93.8 120.1ZM102.5 125.6C105.2 129.1 105.2 129.3 103.5 130.6C100.6 132.7 99.4 132.3 97.1 128.6C94.5 124.4 94.5 124.1 97.3 123C98.5 122.5 99.6 122.1 99.6 122.1C99.7 122 101 123.6 102.5 125.6Z" fill="black"/>
<path d="M143.8 145.1C142 146.4 141 148.1 141 149.7C141 152.5 147.5 162 149.4 162C150.1 162 152.4 160.5 154.6 158.6L158.5 155.2L155.5 149.3C152.9 144.4 152.1 143.5 149.5 143.3C147.7 143.1 145.4 143.8 143.8 145.1ZM151.6 151.2C153.1 154.1 153.1 154.4 151.5 155.7C149.9 156.8 149.4 156.6 147.3 153.8C144.5 150 144.5 149.4 146.7 148.1C148.9 146.9 149.6 147.4 151.6 151.2Z" fill="black"/>
<path d="M129.1 153.3C127.8 153.9 126.1 155.4 125.4 156.5C123.9 158.8 125.2 162.2 129.8 167.9L132.6 171.2L136.9 169C141.1 166.9 141.2 166.7 140.7 162.9C140.1 158.3 135.7 152 133.2 152C132.3 152 130.4 152.6 129.1 153.3ZM135.4 160.2C137.2 163.2 137.2 163.4 135.5 164.6C133.9 165.8 133.4 165.6 131.3 162.8C128.8 159.4 128.6 158.7 129.7 157.7C131.2 156.1 133.7 157.2 135.4 160.2Z" fill="black"/>
<path d="M143.4 185.7C142.2 185.9 140.4 187 139.4 188.1C137.8 189.9 137.8 190.3 140.5 197C144.3 206.5 145.1 207 150.9 204C154 202.3 155.6 200.8 155.8 199.2C156.3 195.6 148.2 184.1 145.8 185.1C145.6 185.2 144.5 185.5 143.4 185.7ZM148.8 193.5C151.5 197.8 151.5 198.6 149 200C147.2 201 146.7 200.6 145 196.8C143.9 194.4 143 191.9 143 191.2C143 188.7 146.6 190.1 148.8 193.5Z" fill="black"/>
<path d="M327 112.1C323.5 113.5 321 116 321 118.2C321 120.5 322.6 120.5 325.7 118C327.1 116.9 330 115.7 332 115.4C336.6 114.6 338.5 113.6 337.6 112.1C336.7 110.8 330.4 110.8 327 112.1Z" fill="black"/>
<path d="M270.6 149.5C269.3 150.9 267.5 154.5 266.5 157.5C264.9 162.6 264.9 163.2 266.4 165.5C267.7 167.5 268.9 168 272 168C276.7 168 279.1 165.9 278.5 162.2C278.3 160.7 277.9 157.3 277.5 154.6C277 149.8 275.6 147 273.8 147C273.3 147 271.9 148.1 270.6 149.5ZM274 160.1C274 163.3 273.7 164 272 164C269.7 164 269.4 161.5 271.1 157.6C272.7 154.2 274 155.3 274 160.1Z" fill="black"/>
<path d="M285.4 154.7C281.8 158.5 280.4 164.1 282 168C283.4 171.4 288 174.3 291.3 173.8C293.2 173.5 293.6 172.6 294.2 167.5C295.8 154 291.7 148 285.4 154.7ZM290 163C290 167.5 289.6 169 288.6 169C285.8 169 285.1 162.7 287.6 159.2C288.4 158 289.3 157 289.6 157C289.8 157 290 159.7 290 163Z" fill="black"/>
<path d="M231.6 189.9C230.8 191.1 241.5 207.5 243.4 207.8C246.1 208.4 245.3 204.9 241.4 199C235.5 190.2 232.9 187.7 231.6 189.9Z" fill="black"/>
<path d="M70.4 207.2C31.5 226.9 31 227.2 32.8 229.2C33.9 230.3 39.9 227.6 68.6 213C87.6 203.4 104.5 194.7 106.1 193.7C109.2 191.9 109.2 190 106.2 190C105.2 190 89.1 197.8 70.4 207.2Z" fill="black"/>
<path d="M188.4 259.7C186.5 261.7 185 263.7 185 264.1C185 265.2 179 267 175.3 267C168.3 267 166.2 270.6 169.5 277C172.4 282.5 178.9 284.3 185.7 281.5C187.6 280.7 189.4 280 189.6 280C189.8 280 191.1 281.8 192.6 283.9C197.3 291 204.8 291.2 209.1 284.4C211.1 281.1 211.4 281 217.1 281C222.1 281 223.5 280.6 225.5 278.5C228.4 275.7 228.7 272.2 226.4 267.9C224.6 264.4 220.7 262.5 213 261.5C210 261.1 204.9 259.7 201.8 258.4C194.1 255.2 192.4 255.4 188.4 259.7ZM203.5 264C204.6 264.4 207.8 265 210.5 265.4C218.4 266.5 221.6 267.9 222.9 270.6C224.3 273.7 224.3 273.5 222.4 275.5C221.1 276.8 219.6 277 215.5 276.5C209.8 275.7 209 276.2 204.7 282.5C202.1 286.1 199.2 285.4 195.7 280.2C192.5 275.5 190.8 275.1 184 277.5C179 279.3 177.2 278.9 174.1 275.6C171.2 272.5 172.1 271 176.9 271C182.7 271 186.6 269.2 189.6 265.2C193.4 260.1 193.9 259.9 197.9 261.7C199.9 262.5 202.4 263.5 203.5 264Z" fill="black"/>
</svg>
