<svg width="500" height="500" viewBox="0 0 500 500" fill="none" xmlns="http://www.w3.org/2000/svg">
<path fill-rule="evenodd" clip-rule="evenodd" d="M259.002 43.5116L256.97 43.5022C248.329 43.4568 240.415 44.0965 232.029 46.2444L229.22 47.0022C219.859 49.2497 211.413 52.3161 202.979 57.0061L201.22 58.0022C192.363 62.9914 184.861 68.6 177.904 76.0374L175.22 79.0022C159.104 96.6662 152.14 122.266 147.048 145.131L146.22 149.002C145.285 149.002 144.787 149.002 144.325 149.13C143.798 149.275 143.316 149.587 142.287 150.252C133.937 155.073 129.755 157.488 125.394 159.522C121.017 161.564 116.461 163.222 107.33 166.545C72.3563 179.213 41.0899 193.373 24.3999 228.729C15.1107 250.528 12.6578 274.778 21.4773 297.18L22.2202 299.002C29.9036 317.98 41.7654 333.037 58.4131 344.802C79.5966 358.871 106.637 362.4 131.333 357.44L133.22 357.002C133.067 359.373 133.137 361.585 133.604 363.917C134.738 368.724 135.725 373.541 136.615 378.398C136.945 380.214 137.277 382.03 137.61 383.845C138.149 386.772 138.685 389.699 139.22 392.627C139.755 395.562 140.29 398.497 140.83 401.431L141.345 404.229C142.375 409.926 143.528 415.463 145.22 421.002C148.077 421.146 150.427 420.954 153.224 420.303C165.444 416.909 177.848 414.638 190.361 412.618L194.22 412.002C231.739 405.809 271.955 404.923 309.618 410.441L313.22 411.002C313.905 411.109 314.59 411.215 315.275 411.321C328.715 413.404 342.187 415.492 355.287 419.194C360.111 420.615 364.184 421.188 369.22 421.002C370.276 415.732 371.326 410.46 372.371 405.188C372.799 403.022 373.228 400.856 373.658 398.69C374.292 395.522 374.926 392.355 375.553 389.186L376.154 386.139C377.507 379.436 378.525 372.837 379.074 366.017L379.22 364.002C395.401 364.695 411.354 361.982 426.079 355.138C450.686 343.299 469.79 323.576 478.97 297.658L480.22 294.002C483.918 284.48 484.531 275.661 484.539 265.544C484.386 212.966 452.545 164.054 416.216 127.771C414.791 126.366 413.366 124.961 411.945 123.552C371.029 82.9594 319.071 43.998 259.002 43.5116ZM165.703 142.29C171.901 124.589 177.968 107.265 189.47 92.1897C209.18 69.373 238.876 62.8939 267.709 65.2014C327.506 71.1543 379.134 118.244 415.809 162.299L417.22 164.002C444.396 196.609 462.762 231.634 462.365 274.621C461.19 293.879 449.148 312.172 435.283 324.788C421.534 336.796 402.638 344.939 384.22 344.002C384.074 340.143 384.46 336.471 385.042 332.666L385.408 330.377C385.461 329.972 385.511 329.577 385.559 329.19C386.011 325.558 386.365 322.712 389.419 320.178L392.22 319.002L395.384 317.459C399.043 315.721 402.665 313.944 406.22 312.002C419.99 303.606 431.932 290.867 436.22 275.002C424.149 287.183 411.627 296.571 395.383 302.302C365.26 312.055 337.854 301.357 310.823 288.137C309.636 287.556 308.453 286.973 307.27 286.391C294.518 280.113 281.923 273.911 267.755 271.522L264.22 271.002C260.661 270.43 257.103 269.862 253.537 269.334L251.22 269.002C263.323 250.72 284.919 235.843 304.361 225.944C306.322 224.959 308.281 223.971 310.23 222.963C318.321 218.76 326.376 214.974 334.939 211.815L337.22 211.002C313.625 210.651 290.394 219.601 270.037 230.851L267.658 232.19C251.431 241.172 238.104 253.601 225.271 266.814C224.55 267.558 223.831 268.303 223.113 269.046C214.174 278.294 205.33 287.444 194.94 295.117C179.593 305.751 161.207 310.427 142.619 307.608C122.709 302.582 108.159 290.608 96.5835 274.022L95.2202 272.002V275.002C98.44 289.089 103.533 302.689 115.22 312.002C118.137 313.914 121.041 315.82 123.888 317.834C127.107 320.827 127.671 323.246 128.095 327.526C128.158 328.775 128.19 329.394 128.245 330.011C128.3 330.617 128.378 331.22 128.533 332.416C128.795 334.274 129.013 336.138 129.22 338.002C123.079 339.627 117.492 340.239 111.142 340.227L107.97 340.19C97.5312 340.183 88.9909 338.873 79.2202 335.002C60.7586 325.83 46.4534 310.909 39.05 291.59C32.4871 273.179 33.8 253.295 41.956 235.694C54.8729 209.375 78.6521 197.044 105.039 187.378C111.07 185.175 117.065 182.911 123.026 180.526L125.72 179.44C127.377 178.772 129.033 178.105 130.689 177.436L134.22 176.002L135.22 178.002C128.186 189.857 119.818 199.585 106.986 205.295L105.22 206.002C111.414 206.402 115.92 205.842 121.607 203.33C145.637 191.118 156.272 169.165 164.83 144.783C165.121 143.952 165.412 143.121 165.703 142.29ZM231.21 303.722L229.1 303.762C228.751 303.768 228.408 303.772 228.07 303.777C224.049 303.83 220.78 303.873 217.31 306.385L215.158 308.127C213.51 309.417 211.865 310.709 210.22 312.002C208.779 313.17 207.32 314.316 205.845 315.44C189.186 326.927 168.719 331.433 148.748 328.49L146.22 328.002C146.22 329.458 146.22 330.207 146.283 330.951C146.349 331.741 146.486 332.524 146.768 334.14L147.54 338.045L148.405 342.447C149.2 346.458 149.99 350.47 150.777 354.482L151.263 356.967C152.971 365.68 154.631 374.401 156.261 383.129L156.658 385.252C157.366 389.047 158.074 392.841 158.78 396.636L159.22 399.002C160.667 399.002 161.416 399.002 162.156 398.924C162.952 398.84 163.738 398.665 165.369 398.303C175.909 395.816 186.523 394.12 197.244 392.646L199.658 392.315C218.503 389.653 237.229 388.814 256.253 388.812L258.908 388.815C273.637 388.814 288.226 389.094 302.881 390.729L305.22 391.002C312.401 391.993 315.992 392.488 319.571 393.054C323.152 393.62 326.722 394.257 333.862 395.532C340.642 396.727 347.425 397.892 354.22 399.002C354.854 396.595 355.39 394.186 355.897 391.748L356.673 387.869C357.117 385.655 357.56 383.44 358.002 381.225L358.47 378.877C359.576 373.331 360.679 367.785 361.778 362.238L362.22 360.002C362.967 356.232 363.712 352.462 364.45 348.69L365.095 345.377C366.434 338.591 367.553 331.889 368.22 325.002C352.86 323.9 338.706 321.709 324.127 316.612L321.72 315.752C318.496 314.613 315.344 313.396 312.22 312.002C301.492 305.872 293.36 302.823 280.916 303.126C279.33 303.166 277.744 303.192 276.158 303.204C271.958 303.219 267.76 303.261 263.562 303.344C260.102 303.412 256.644 303.461 253.184 303.487C245.859 303.539 238.534 303.595 231.21 303.722Z" fill="#21B76E"/>
</svg>
